<?xml version="1.0" encoding="utf-8"?>
<!-- Generator: Adobe Illustrator 18.0.0, SVG Export Plug-In . SVG Version: 6.00 Build 0)  -->
<!DOCTYPE svg PUBLIC "-//W3C//DTD SVG 1.1//EN" "http://www.w3.org/Graphics/SVG/1.1/DTD/svg11.dtd">
<svg version="1.1" id="Camada_1" xmlns="http://www.w3.org/2000/svg" xmlns:xlink="http://www.w3.org/1999/xlink" x="0px" y="0px"
	 viewBox="0 0 161.4 176.9" enable-background="new 0 0 161.4 176.9" xml:space="preserve">
<path fill="#FFFFFF" d="M103.1,66.9h13.1v12.4h13.2V29.6H89.9v49.7h13.2V66.9z M103.1,42h13.1v12.4h-13.1V42z M45.2,42h13.1v37.3
	h13.2V29.6H32v49.7h13.2V42z M103.1,134.9h26.3V97.6H89.9v49.7h13.2V134.9z M103.1,110h13.1v12.4h-13.1V110z M0,0v176.9h161.4V0H0z
	 M154.9,170.4H6.5V6.5h148.5V170.4z M45.2,147.3h13.1v-12.6h13.2V97.4H58.3v25H45.2v-25H32v37.4h13.2V147.3z"/>
</svg>
