<?xml version="1.0" encoding="utf-8"?>
<!-- Generator: Adobe Illustrator 16.0.0, SVG Export Plug-In . SVG Version: 6.00 Build 0)  -->
<!DOCTYPE svg PUBLIC "-//W3C//DTD SVG 1.1//EN" "http://www.w3.org/Graphics/SVG/1.1/DTD/svg11.dtd">
<svg version="1.1" id="Layer_1" xmlns="http://www.w3.org/2000/svg" xmlns:xlink="http://www.w3.org/1999/xlink" x="0px" y="0px"
	 width="200px" height="200px" viewBox="0 0 200 200" enable-background="new 0 0 200 200" xml:space="preserve">
<path fill-rule="evenodd" clip-rule="evenodd" d="M62.908,57.637h73.823h1.541v1.541v81.205v1.54h-1.541H62.908h-1.541v-1.54V59.178
	v-1.541H62.908L62.908,57.637z M76.618,71.718v23.701h6.281V77.644h6.251v17.775h6.281V71.718H76.618L76.618,71.718z
	 M95.431,121.858v-0.026v-17.8H89.15v11.9h-6.251v-11.9h-6.281v17.8v0.026h6.281v5.983h6.251v-5.983H95.431L95.431,121.858z
	 M104.207,71.718V95.42h6.281v-5.926h6.251v5.926h6.28V71.718H104.207L104.207,71.718z M116.739,83.568v-5.925h-6.251v5.925H116.739
	L116.739,83.568z M104.207,104.142v23.701h6.281v-5.926h12.531v-17.775H104.207L104.207,104.142z M116.738,115.992v-5.926h-6.25
	v5.926H116.738L116.738,115.992z M135.189,60.719H64.449v78.123h70.741V60.719z"/>
</svg>
