<svg xmlns="http://www.w3.org/2000/svg" width="200" height="200" viewBox="0 0 200 200"><path fill-rule="evenodd" clip-rule="evenodd" d="M62.908 57.637H138.272v84.286H61.367V57.637h1.541zm13.71 14.081v23.701h6.281V77.644h6.251v17.775h6.281V71.718H76.618zm18.813 50.14v-17.826H89.15v11.9h-6.251v-11.9h-6.281v17.826h6.281v5.983h6.251v-5.983h6.281zm8.776-50.14V95.42h6.281v-5.926h6.251v5.926h6.28V71.718h-18.812zm12.532 11.85v-5.925h-6.251v5.925h6.251zm-12.532 20.574v23.701h6.281v-5.926h12.531v-17.775h-18.812zm12.531 11.85v-5.926h-6.25v5.926h6.25zm18.451-55.273h-70.74v78.123h70.741V60.719z"/></svg>