<svg style="position: absolute; width: 0; height: 0; overflow: hidden;" version="1.1" xmlns="http://www.w3.org/2000/svg" xmlns:xlink="http://www.w3.org/1999/xlink">
  <defs>
    <symbol id="icon-brasil" viewBox="0 0 32 32">
      <title>brasil</title>
      <path class="path1" fill="#000" d="M31.040 16c0 8.306-6.734 15.040-15.040 15.040s-15.040-6.734-15.040-15.040c0-8.306 6.734-15.040 15.040-15.040s15.040 6.734 15.040 15.040z"></path>
      <path class="path2" d="M16 0.002c8.836 0 16 7.162 16 15.998s-7.164 15.997-16 15.997c-8.836 0-16-7.162-16-15.997s7.164-15.998 16-15.998v0zM15.998 1.922c-7.742 0-14.079 6.334-14.079 14.078v0c0 7.744 6.337 14.078 14.079 14.078v0c7.744 0 14.080-6.334 14.080-14.078v0c0-7.744-6.336-14.078-14.080-14.078v0 0zM16 10.265v0c3.166 0 5.733 2.568 5.733 5.735s-2.566 5.735-5.733 5.735c-3.169 0-5.735-2.568-5.735-5.735s2.566-5.735 5.735-5.735zM15.998 7.27l-13.651 8.73 13.651 8.729 1.873-1.195 11.78-7.534-13.652-8.73z"></path>
    </symbol>
    <symbol id="icon-world" viewBox="0 0 32 32">
      <title>world</title>
      <path class="path1" fill="#000" d="M30.655 16c0 8.094-6.561 14.655-14.655 14.655s-14.655-6.561-14.655-14.655c0-8.094 6.561-14.655 14.655-14.655s14.655 6.561 14.655 14.655z"></path>
      <path class="path2" d="M16 0.002c8.838 0 16 7.162 16 15.998s-7.162 15.998-16 15.998c-8.836 0-16-7.162-16-15.998s7.164-15.998 16-15.998v0zM15.99 1.918c-7.755 0-14.069 6.309-14.069 14.080 0 7.777 6.314 14.085 14.069 14.085 7.781-0 14.090-6.308 14.090-14.085 0-7.771-6.309-14.080-14.090-14.080v0zM21.022 11.469c-0.142 0.109-0.236 0.311-0.416 0.351 0.087-0.022 0.18-0.351 0.235-0.423 0.109-0.131 0.253-0.202 0.401-0.272 0.312-0.133 0.623-0.17 0.952-0.225 0.311-0.071 0.696-0.071 0.938 0.203-0.055-0.055 0.383-0.439 0.438-0.455 0.168-0.093 0.443-0.059 0.552-0.224 0.040-0.054 0.040-0.401 0.040-0.401-0.314 0.032-0.423-0.256-0.445-0.514 0 0.015-0.037 0.070-0.109 0.147 0.017-0.279-0.329-0.077-0.461-0.109-0.421-0.11-0.367-0.407-0.492-0.718-0.072-0.164-0.274-0.219-0.351-0.384-0.072-0.109-0.11-0.349-0.274-0.367-0.109-0.020-0.313 0.384-0.344 0.367-0.17-0.093-0.242 0.034-0.366 0.11-0.116 0.071-0.204 0.039-0.314 0.094 0.328-0.115-0.142-0.296-0.313-0.259 0.257-0.076 0.132-0.349-0.017-0.476 0.040 0 0.056 0 0.095 0-0.039-0.168-0.547-0.312-0.713-0.421-0.17-0.11-1.046-0.295-1.232-0.185-0.219 0.13 0.055 0.497 0.055 0.677 0.022 0.22-0.219 0.274-0.219 0.46 0 0.314 0.585 0.259 0.444 0.681-0.095 0.251-0.444 0.311-0.586 0.508-0.149 0.187 0.015 0.516 0.164 0.647 0.141 0.109-0.259 0.291-0.313 0.328-0.313 0.148-0.546-0.312-0.624-0.586-0.066-0.202-0.087-0.444-0.307-0.553-0.109-0.033-0.455-0.093-0.53 0.023-0.11-0.28-0.505-0.389-0.756-0.477-0.363-0.132-0.675-0.132-1.058-0.077 0.127-0.015-0.038-0.586-0.344-0.493 0.087-0.185 0.054-0.388 0.087-0.569 0.040-0.147 0.11-0.295 0.219-0.421 0.038-0.072 0.439-0.493 0.312-0.514 0.313 0.038 0.657 0.054 0.909-0.204 0.165-0.165 0.242-0.437 0.407-0.618 0.24-0.28 0.541 0.071 0.793 0.087 0.383 0.023 0.362-0.383 0.142-0.568 0.259 0.020 0.039-0.421-0.092-0.476-0.158-0.055-0.788 0.109-0.454 0.24-0.072-0.038-0.516 0.882-0.773 0.421-0.072-0.093-0.109-0.476-0.268-0.491-0.148 0-0.237 0.164-0.292 0.274 0.089-0.242-0.514-0.407-0.641-0.423 0.274-0.186 0.055-0.388-0.147-0.498-0.148-0.089-0.603-0.164-0.727-0.017-0.352 0.421 0.361 0.476 0.548 0.585 0.055 0.038 0.272 0.165 0.141 0.258-0.109 0.054-0.432 0.147-0.47 0.219-0.11 0.164 0.124 0.351-0.040 0.516-0.164-0.165-0.164-0.439-0.289-0.626 0.165 0.203-0.663 0.099-0.641 0.099-0.274 0-0.718 0.175-0.92-0.099-0.034-0.069-0.034-0.493 0.075-0.404-0.164-0.127-0.277-0.253-0.388-0.329-0.602 0.202-1.173 0.459-1.708 0.75 0.075 0.020 0.124 0.020 0.217-0.017 0.143-0.055 0.262-0.147 0.406-0.219 0.186-0.070 0.569-0.295 0.771-0.131 0.023-0.034 0.077-0.072 0.094-0.089 0.131 0.149 0.258 0.291 0.367 0.455-0.141-0.072-0.383-0.032-0.548-0.017-0.132 0.038-0.349 0.072-0.404 0.219 0.055 0.093 0.124 0.242 0.087 0.335-0.236-0.17-0.416-0.444-0.739-0.482-0.144 0-0.285 0-0.401 0.020-1.769 0.969-3.258 2.383-4.32 4.070 0.070 0.076 0.148 0.131 0.22 0.148 0.185 0.055 0 0.586 0.349 0.312 0.109 0.093 0.127 0.22 0.054 0.346 0.018-0.018 0.75 0.459 0.805 0.497 0.132 0.11 0.334 0.236 0.389 0.384 0.037 0.132-0.072 0.274-0.187 0.329-0.015-0.032-0.289-0.306-0.329-0.236-0.055 0.094 0 0.585 0.204 0.571-0.297 0.014-0.164 1.154-0.242 1.373 0 0.017 0.038 0.017 0.038 0.017-0.055 0.22 0.127 1.085 0.499 0.99-0.24 0.055 0.421 0.9 0.516 0.955 0.234 0.164 0.514 0.272 0.679 0.514 0.184 0.257 0.184 0.641 0.444 0.843-0.077 0.219 0.387 0.476 0.367 0.788-0.038 0.017-0.055 0.017-0.093 0.040 0.093 0.251 0.442 0.251 0.574 0.492 0.072 0.148 0 0.491 0.235 0.422 0.040-0.406-0.235-0.805-0.436-1.14-0.116-0.181-0.225-0.344-0.317-0.531-0.089-0.164-0.109-0.366-0.181-0.548 0.072 0.017 0.476 0.164 0.444 0.22-0.149 0.366 0.586 1.007 0.777 1.249 0.055 0.054 0.471 0.601 0.252 0.601 0.236 0 0.571 0.368 0.68 0.553 0.164 0.274 0.125 0.62 0.24 0.914 0.109 0.367 0.625 0.532 0.92 0.696 0.257 0.132 0.476 0.312 0.733 0.407 0.383 0.148 0.472 0.015 0.795-0.040 0.477-0.070 0.532 0.461 0.915 0.663 0.235 0.127 0.745 0.313 0.996 0.202-0.104 0.036 0.395 0.79 0.427 0.844 0.17 0.219 0.481 0.329 0.664 0.548 0.055-0.037 0.104-0.092 0.124-0.164-0.070 0.204 0.279 0.586 0.467 0.548 0.202-0.033 0.256-0.438 0.256-0.586-0.372 0.188-0.706 0.038-0.903-0.328-0.039-0.093-0.328-0.609-0.071-0.609 0.345 0 0.109-0.273 0.071-0.531s-0.29-0.421-0.421-0.641c-0.109 0.22-0.482 0.165-0.591-0.015 0 0.056-0.055 0.147-0.055 0.22-0.095 0-0.181 0.016-0.274-0.016 0.038-0.226 0.055-0.5 0.109-0.733 0.093-0.335 0.702-0.976-0.089-0.938-0.274 0.017-0.382 0.127-0.476 0.367-0.093 0.22-0.055 0.421-0.312 0.531-0.164 0.071-0.713 0.040-0.876-0.055-0.339-0.202-0.57-0.843-0.57-1.209-0.022-0.493 0.231-0.938 0-1.391 0.11-0.094 0.214-0.28 0.341-0.367 0.104-0.078 0.229 0.055 0.283-0.17-0.054-0.033-0.124-0.11-0.142-0.11 0.274 0.131 0.782-0.181 1.019 0 0.147 0.11 0.312 0.148 0.404-0.034 0.017-0.054-0.131-0.277-0.053-0.421 0.053 0.312 0.252 0.367 0.525 0.165 0.11 0.109 0.405 0.072 0.607 0.181 0.204 0.13 0.242 0.328 0.482 0.055 0.144 0.22 0.159 0.22 0.214 0.444 0.055 0.196 0.164 0.71 0.351 0.804 0.395 0.234 0.3-0.406 0.263-0.625-0.022-0.017-0.022-0.624-0.038-0.624-0.591-0.127-0.372-0.586-0.039-0.898 0.055-0.034 0.478-0.181 0.657-0.329 0.165-0.147 0.367-0.406 0.274-0.64 0.093 0 0.17-0.077 0.203-0.164-0.055-0.023-0.274-0.203-0.312-0.187 0.132-0.070 0.109-0.18 0.037-0.289 0.181-0.116 0.095-0.313 0.274-0.389 0.204 0.274 0.608-0.032 0.407-0.257 0.185-0.253 0.612-0.127 0.722-0.367 0.274 0.075 0.072-0.274 0.219-0.478 0.132-0.165 0.352-0.165 0.511-0.257 0 0.022 0.459-0.252 0.312-0.274 0.311 0.040 0.936-0.289 0.459-0.569 0.072-0.164-0.164-0.236-0.329-0.274 0.127-0.032 0.292 0.038 0.401-0.032 0.243-0.17 0.077-0.242-0.127-0.297-0.257-0.070-0.586 0.092-0.789 0.219v0zM18.033 27.551c2.514-0.444 4.747-1.691 6.435-3.466-0.11-0.109-0.307-0.077-0.456-0.148-0.148-0.055-0.257-0.109-0.443-0.149 0.038-0.367-0.368-0.491-0.62-0.679-0.24-0.181-0.39-0.384-0.733-0.312-0.037 0.020-0.407 0.148-0.334 0.226-0.236-0.205-0.347-0.314-0.658-0.407-0.289-0.092-0.492-0.46-0.788-0.131-0.148 0.148-0.072 0.367-0.148 0.514-0.236-0.202 0.225-0.438 0.038-0.658-0.22-0.256-0.609 0.165-0.794 0.274-0.109 0.093-0.241 0.127-0.311 0.236-0.095 0.131-0.133 0.295-0.204 0.422-0.056-0.142-0.367-0.11-0.382-0.22 0.070 0.444 0.070 0.898 0.159 1.341 0.059 0.258 0 0.678-0.213 0.877-0.214 0.203-0.493 0.421-0.533 0.732-0.037 0.219 0.018 0.422 0.226 0.477 0.017 0.279-0.301 0.475-0.281 0.772 0.001 0.016 0.018 0.203 0.041 0.295z"></path>
    </symbol>
    <symbol id="icon-search" viewBox="0 0 30 32">
      <title>search</title>
      <path class="path1" d="M20.571 14.857q0-3.304-2.348-5.652t-5.652-2.348-5.652 2.348-2.348 5.652 2.348 5.652 5.652 2.348 5.652-2.348 2.348-5.652zM29.714 29.714q0 0.929-0.679 1.607t-1.607 0.679q-0.964 0-1.607-0.679l-6.125-6.107q-3.196 2.214-7.125 2.214-2.554 0-4.884-0.991t-4.018-2.679-2.679-4.018-0.991-4.884 0.991-4.884 2.679-4.018 4.018-2.679 4.884-0.991 4.884 0.991 4.018 2.679 2.679 4.018 0.991 4.884q0 3.929-2.214 7.125l6.125 6.125q0.661 0.661 0.661 1.607z"></path>
    </symbol>
    <symbol id="icon-user" viewBox="0 0 25 32">
      <title>user</title>
      <path class="path1" d="M25.143 25.089q0 2.143-1.304 3.384t-3.464 1.241h-15.607q-2.161 0-3.464-1.241t-1.304-3.384q0-0.946 0.063-1.848t0.25-1.946 0.473-1.938 0.768-1.741 1.107-1.446 1.527-0.955 1.991-0.357q0.161 0 0.75 0.384t1.33 0.857 1.929 0.857 2.384 0.384 2.384-0.384 1.929-0.857 1.33-0.857 0.75-0.384q1.089 0 1.991 0.357t1.527 0.955 1.107 1.446 0.768 1.741 0.473 1.938 0.25 1.946 0.063 1.848zM19.429 9.143q0 2.839-2.009 4.848t-4.848 2.009-4.848-2.009-2.009-4.848 2.009-4.848 4.848-2.009 4.848 2.009 2.009 4.848z"></path>
    </symbol>
    <symbol id="icon-check" viewBox="0 0 32 32">
      <title>check</title>
      <path class="path1" d="M29.839 10.107q0 0.714-0.5 1.214l-15.357 15.357q-0.5 0.5-1.214 0.5t-1.214-0.5l-8.893-8.893q-0.5-0.5-0.5-1.214t0.5-1.214l2.429-2.429q0.5-0.5 1.214-0.5t1.214 0.5l5.25 5.268 11.714-11.732q0.5-0.5 1.214-0.5t1.214 0.5l2.429 2.429q0.5 0.5 0.5 1.214z"></path>
    </symbol>
    <symbol id="icon-cross" viewBox="0 0 25 32">
      <title>cross</title>
      <path class="path1" d="M23.179 23.607q0 0.714-0.5 1.214l-2.429 2.429q-0.5 0.5-1.214 0.5t-1.214-0.5l-5.25-5.25-5.25 5.25q-0.5 0.5-1.214 0.5t-1.214-0.5l-2.429-2.429q-0.5-0.5-0.5-1.214t0.5-1.214l5.25-5.25-5.25-5.25q-0.5-0.5-0.5-1.214t0.5-1.214l2.429-2.429q0.5-0.5 1.214-0.5t1.214 0.5l5.25 5.25 5.25-5.25q0.5-0.5 1.214-0.5t1.214 0.5l2.429 2.429q0.5 0.5 0.5 1.214t-0.5 1.214l-5.25 5.25 5.25 5.25q0.5 0.5 0.5 1.214z"></path>
    </symbol>
    <symbol id="icon-tags" viewBox="0 0 34 32">
      <title>tags</title>
      <path class="path1" d="M8 8q0-0.946-0.67-1.616t-1.616-0.67-1.616 0.67-0.67 1.616 0.67 1.616 1.616 0.67 1.616-0.67 0.67-1.616zM27.054 18.286q0 0.946-0.661 1.607l-8.768 8.786q-0.696 0.661-1.625 0.661-0.946 0-1.607-0.661l-12.768-12.786q-0.679-0.661-1.152-1.804t-0.473-2.089v-7.429q0-0.929 0.679-1.607t1.607-0.679h7.429q0.946 0 2.089 0.473t1.821 1.152l12.768 12.75q0.661 0.696 0.661 1.625zM33.911 18.286q0 0.946-0.661 1.607l-8.768 8.786q-0.696 0.661-1.625 0.661-0.643 0-1.054-0.25t-0.946-0.804l8.393-8.393q0.661-0.661 0.661-1.607 0-0.929-0.661-1.625l-12.768-12.75q-0.679-0.679-1.821-1.152t-2.089-0.473h4q0.946 0 2.089 0.473t1.821 1.152l12.768 12.75q0.661 0.696 0.661 1.625z"></path>
    </symbol>
    <symbol id="icon-warning" viewBox="0 0 27 32">
      <title>warning</title>
      <path class="path1" d="M16 24.571v-3.429q0-0.25-0.161-0.411t-0.411-0.161h-3.429q-0.25 0-0.411 0.161t-0.161 0.411v3.429q0 0.25 0.161 0.411t0.411 0.161h3.429q0.25 0 0.411-0.161t0.161-0.411zM20.571 12.571q0-1.571-0.991-2.911t-2.473-2.071-3.036-0.732q-4.339 0-6.625 3.804-0.268 0.429 0.143 0.75l2.357 1.786q0.125 0.107 0.339 0.107 0.286 0 0.446-0.214 0.946-1.214 1.536-1.643 0.607-0.429 1.536-0.429 0.857 0 1.527 0.464t0.67 1.054q0 0.679-0.357 1.089t-1.214 0.804q-1.125 0.5-2.063 1.545t-0.938 2.241v0.643q0 0.25 0.161 0.411t0.411 0.161h3.429q0.25 0 0.411-0.161t0.161-0.411q0-0.339 0.384-0.884t0.973-0.884q0.571-0.321 0.875-0.509t0.821-0.625 0.795-0.857 0.5-1.080 0.223-1.446zM27.429 16q0 3.732-1.839 6.884t-4.991 4.991-6.884 1.839-6.884-1.839-4.991-4.991-1.839-6.884 1.839-6.884 4.991-4.991 6.884-1.839 6.884 1.839 4.991 4.991 1.839 6.884z"></path>
    </symbol>
    <symbol id="icon-info" viewBox="0 0 27 32">
      <title>info</title>
      <path class="path1" d="M18.286 24.571v-2.857q0-0.25-0.161-0.411t-0.411-0.161h-1.714v-9.143q0-0.25-0.161-0.411t-0.411-0.161h-5.714q-0.25 0-0.411 0.161t-0.161 0.411v2.857q0 0.25 0.161 0.411t0.411 0.161h1.714v5.714h-1.714q-0.25 0-0.411 0.161t-0.161 0.411v2.857q0 0.25 0.161 0.411t0.411 0.161h8q0.25 0 0.411-0.161t0.161-0.411zM16 8.571v-2.857q0-0.25-0.161-0.411t-0.411-0.161h-3.429q-0.25 0-0.411 0.161t-0.161 0.411v2.857q0 0.25 0.161 0.411t0.411 0.161h3.429q0.25 0 0.411-0.161t0.161-0.411zM27.429 16q0 3.732-1.839 6.884t-4.991 4.991-6.884 1.839-6.884-1.839-4.991-4.991-1.839-6.884 1.839-6.884 4.991-4.991 6.884-1.839 6.884 1.839 4.991 4.991 1.839 6.884z"></path>
    </symbol>
    <symbol id="icon-plus" viewBox="0 0 25 32">
      <title>plus</title>
      <path class="path1" d="M25.143 13.143v3.429q0 0.714-0.5 1.214t-1.214 0.5h-7.429v7.429q0 0.714-0.5 1.214t-1.214 0.5h-3.429q-0.714 0-1.214-0.5t-0.5-1.214v-7.429h-7.429q-0.714 0-1.214-0.5t-0.5-1.214v-3.429q0-0.714 0.5-1.214t1.214-0.5h7.429v-7.429q0-0.714 0.5-1.214t1.214-0.5h3.429q0.714 0 1.214 0.5t0.5 1.214v7.429h7.429q0.714 0 1.214 0.5t0.5 1.214z"></path>
    </symbol>
    <symbol id="icon-minus" viewBox="0 0 25 32">
      <title>minus</title>
      <path class="path1" d="M25.143 13.143v3.429q0 0.714-0.5 1.214t-1.214 0.5h-21.714q-0.714 0-1.214-0.5t-0.5-1.214v-3.429q0-0.714 0.5-1.214t1.214-0.5h21.714q0.714 0 1.214 0.5t0.5 1.214z"></path>
    </symbol>
    <symbol id="icon-error" viewBox="0 0 27 32">
      <title>error</title>
      <path class="path1" d="M13.714 2.286q3.732 0 6.884 1.839t4.991 4.991 1.839 6.884-1.839 6.884-4.991 4.991-6.884 1.839-6.884-1.839-4.991-4.991-1.839-6.884 1.839-6.884 4.991-4.991 6.884-1.839zM16 24.554v-3.393q0-0.25-0.161-0.42t-0.393-0.17h-3.429q-0.232 0-0.411 0.179t-0.179 0.411v3.393q0 0.232 0.179 0.411t0.411 0.179h3.429q0.232 0 0.393-0.17t0.161-0.42zM15.964 18.411l0.321-11.089q0-0.214-0.179-0.321-0.179-0.143-0.429-0.143h-3.929q-0.25 0-0.429 0.143-0.179 0.107-0.179 0.321l0.304 11.089q0 0.179 0.179 0.313t0.429 0.134h3.304q0.25 0 0.42-0.134t0.188-0.313z"></path>
    </symbol>
    <symbol id="icon-twitter" viewBox="0 0 30 32">
      <title>twitter</title>
      <path class="path1" d="M28.929 7.286q-1.196 1.75-2.893 2.982 0.018 0.25 0.018 0.75 0 2.321-0.679 4.634t-2.063 4.437-3.295 3.759-4.607 2.607-5.768 0.973q-4.839 0-8.857-2.589 0.625 0.071 1.393 0.071 4.018 0 7.161-2.464-1.875-0.036-3.357-1.152t-2.036-2.848q0.589 0.089 1.089 0.089 0.768 0 1.518-0.196-2-0.411-3.313-1.991t-1.313-3.67v-0.071q1.214 0.679 2.607 0.732-1.179-0.786-1.875-2.054t-0.696-2.75q0-1.571 0.786-2.911 2.161 2.661 5.259 4.259t6.634 1.777q-0.143-0.679-0.143-1.321 0-2.393 1.688-4.080t4.080-1.688q2.5 0 4.214 1.821 1.946-0.375 3.661-1.393-0.661 2.054-2.536 3.179 1.661-0.179 3.321-0.893z"></path>
    </symbol>
    <symbol id="icon-facebook" viewBox="0 0 19 32">
      <title>facebook</title>
      <path class="path1" d="M17.125 0.214v4.714h-2.804q-1.536 0-2.071 0.643t-0.536 1.929v3.375h5.232l-0.696 5.286h-4.536v13.554h-5.464v-13.554h-4.554v-5.286h4.554v-3.893q0-3.321 1.857-5.152t4.946-1.83q2.625 0 4.071 0.214z"></path>
    </symbol>
    <symbol id="icon-credit-card" viewBox="0 0 34 32">
      <title>credit-card</title>
      <path class="path1" d="M31.429 2.286q1.179 0 2.018 0.839t0.839 2.018v21.714q0 1.179-0.839 2.018t-2.018 0.839h-28.571q-1.179 0-2.018-0.839t-0.839-2.018v-21.714q0-1.179 0.839-2.018t2.018-0.839h28.571zM2.857 4.571q-0.232 0-0.402 0.17t-0.17 0.402v4h29.714v-4q0-0.232-0.17-0.402t-0.402-0.17h-28.571zM31.429 27.429q0.232 0 0.402-0.17t0.17-0.402v-10.857h-29.714v10.857q0 0.232 0.17 0.402t0.402 0.17h28.571zM4.571 25.143v-2.286h4.571v2.286h-4.571zM11.429 25.143v-2.286h6.857v2.286h-6.857z"></path>
    </symbol>
    <symbol id="icon-pinterest" viewBox="0 0 27 32">
      <title>pinterest</title>
      <path class="path1" d="M27.429 16q0 3.732-1.839 6.884t-4.991 4.991-6.884 1.839q-1.982 0-3.893-0.571 1.054-1.661 1.393-2.929 0.161-0.607 0.964-3.768 0.357 0.696 1.304 1.205t2.036 0.509q2.161 0 3.857-1.223t2.625-3.366 0.929-4.821q0-2.036-1.063-3.821t-3.080-2.911-4.554-1.125q-1.875 0-3.5 0.518t-2.759 1.375-1.946 1.973-1.196 2.313-0.384 2.393q0 1.857 0.714 3.268t2.089 1.982q0.536 0.214 0.679-0.357 0.036-0.125 0.143-0.554t0.143-0.536q0.107-0.411-0.196-0.768-0.911-1.089-0.911-2.696 0-2.696 1.866-4.634t4.884-1.938q2.696 0 4.205 1.464t1.509 3.804q0 3.036-1.223 5.161t-3.134 2.125q-1.089 0-1.75-0.777t-0.411-1.866q0.143-0.625 0.473-1.67t0.536-1.839 0.205-1.348q0-0.893-0.482-1.482t-1.375-0.589q-1.107 0-1.875 1.018t-0.768 2.536q0 1.304 0.446 2.179l-1.768 7.464q-0.304 1.25-0.232 3.161-3.679-1.625-5.946-5.018t-2.268-7.554q0-3.732 1.839-6.884t4.991-4.991 6.884-1.839 6.884 1.839 4.991 4.991 1.839 6.884z"></path>
    </symbol>
    <symbol id="icon-google-plus" viewBox="0 0 41 32">
      <title>google-plus</title>
      <path class="path1" d="M25.661 16.304q0 3.714-1.554 6.616t-4.429 4.536-6.589 1.634q-2.661 0-5.089-1.036t-4.179-2.786-2.786-4.179-1.036-5.089 1.036-5.089 2.786-4.179 4.179-2.786 5.089-1.036q5.107 0 8.768 3.429l-3.554 3.411q-2.089-2.018-5.214-2.018-2.196 0-4.063 1.107t-2.955 3.009-1.089 4.152 1.089 4.152 2.955 3.009 4.063 1.107q1.482 0 2.723-0.411t2.045-1.027 1.402-1.402 0.875-1.482 0.384-1.321h-7.429v-4.5h12.357q0.214 1.125 0.214 2.179zM41.143 14.125v3.75h-3.732v3.732h-3.75v-3.732h-3.732v-3.75h3.732v-3.732h3.75v3.732h3.732z"></path>
    </symbol>
    <symbol id="icon-envelope" viewBox="0 0 32 32">
      <title>envelope</title>
      <path class="path1" d="M32 12.679v14.179q0 1.179-0.839 2.018t-2.018 0.839h-26.286q-1.179 0-2.018-0.839t-0.839-2.018v-14.179q0.786 0.875 1.804 1.554 6.464 4.393 8.875 6.161 1.018 0.75 1.652 1.17t1.688 0.857 1.964 0.438h0.036q0.911 0 1.964-0.438t1.688-0.857 1.652-1.17q3.036-2.196 8.893-6.161 1.018-0.696 1.786-1.554zM32 7.429q0 1.411-0.875 2.696t-2.179 2.196q-6.714 4.661-8.357 5.804-0.179 0.125-0.759 0.545t-0.964 0.679-0.929 0.58-1.027 0.482-0.893 0.161h-0.036q-0.411 0-0.893-0.161t-1.027-0.482-0.929-0.58-0.964-0.679-0.759-0.545q-1.625-1.143-4.679-3.259t-3.661-2.545q-1.107-0.75-2.089-2.063t-0.982-2.438q0-1.393 0.741-2.321t2.116-0.929h26.286q1.161 0 2.009 0.839t0.848 2.018z"></path>
    </symbol>
    <symbol id="icon-comments-o" viewBox="0 0 32 32">
      <title>comments-o</title>
      <path class="path1" d="M12.571 6.857q-2.732 0-5.107 0.929t-3.777 2.518-1.402 3.411q0 1.464 0.946 2.821t2.661 2.357l1.732 1-0.625 1.5q0.607-0.357 1.107-0.696l0.786-0.554 0.946 0.179q1.393 0.25 2.732 0.25 2.732 0 5.107-0.929t3.777-2.518 1.402-3.411-1.402-3.411-3.777-2.518-5.107-0.929zM12.571 4.571q3.411 0 6.313 1.223t4.58 3.33 1.679 4.589-1.679 4.589-4.58 3.33-6.313 1.223q-1.536 0-3.143-0.286-2.214 1.571-4.964 2.286-0.643 0.161-1.536 0.286h-0.054q-0.196 0-0.366-0.143t-0.205-0.375q-0.018-0.054-0.018-0.116t0.009-0.116 0.036-0.107l0.045-0.089t0.063-0.098 0.071-0.089 0.080-0.089 0.071-0.080q0.089-0.107 0.411-0.446t0.464-0.527 0.402-0.518 0.446-0.688 0.366-0.786q-2.214-1.286-3.482-3.161t-1.268-4q0-2.482 1.679-4.589t4.58-3.33 6.312-1.223zM27.25 25.446q0.179 0.429 0.366 0.786t0.446 0.688 0.402 0.518 0.464 0.527 0.411 0.446q0.018 0.018 0.071 0.080t0.080 0.089 0.071 0.089 0.063 0.098l0.045 0.089t0.036 0.107 0.009 0.116-0.018 0.116q-0.054 0.25-0.232 0.393t-0.393 0.125q-0.893-0.125-1.536-0.286-2.75-0.714-4.964-2.286-1.607 0.286-3.143 0.286-4.839 0-8.429-2.357 1.036 0.071 1.571 0.071 2.875 0 5.518-0.804t4.714-2.304q2.232-1.643 3.429-3.786t1.196-4.536q0-1.375-0.411-2.714 2.304 1.268 3.643 3.179t1.339 4.107q0 2.143-1.268 4.009t-3.482 3.152z"></path>
    </symbol>
    <symbol id="icon-left" viewBox="0 0 12 32">
      <title>left</title>
      <path class="path1" d="M11.196 9.714q0 0.232-0.179 0.411l-7.018 7.018 7.018 7.018q0.179 0.179 0.179 0.411t-0.179 0.411l-0.893 0.893q-0.179 0.179-0.411 0.179t-0.411-0.179l-8.321-8.321q-0.179-0.179-0.179-0.411t0.179-0.411l8.321-8.321q0.179-0.179 0.411-0.179t0.411 0.179l0.893 0.893q0.179 0.179 0.179 0.411z"></path>
    </symbol>
    <symbol id="icon-right" viewBox="0 0 11 32">
      <title>right</title>
      <path class="path1" d="M10.625 17.143q0 0.232-0.179 0.411l-8.321 8.321q-0.179 0.179-0.411 0.179t-0.411-0.179l-0.893-0.893q-0.179-0.179-0.179-0.411t0.179-0.411l7.018-7.018-7.018-7.018q-0.179-0.179-0.179-0.411t0.179-0.411l0.893-0.893q0.179-0.179 0.411-0.179t0.411 0.179l8.321 8.321q0.179 0.179 0.179 0.411z"></path>
    </symbol>
    <symbol id="icon-up" viewBox="0 0 21 32">
      <title>up</title>
      <path class="path1" d="M19.196 21.143q0 0.232-0.179 0.411l-0.893 0.893q-0.179 0.179-0.411 0.179t-0.411-0.179l-7.018-7.018-7.018 7.018q-0.179 0.179-0.411 0.179t-0.411-0.179l-0.893-0.893q-0.179-0.179-0.179-0.411t0.179-0.411l8.321-8.321q0.179-0.179 0.411-0.179t0.411 0.179l8.321 8.321q0.179 0.179 0.179 0.411z"></path>
    </symbol>
    <symbol id="icon-down" viewBox="0 0 21 32">
      <title>down</title>
      <path class="path1" d="M19.196 13.143q0 0.232-0.179 0.411l-8.321 8.321q-0.179 0.179-0.411 0.179t-0.411-0.179l-8.321-8.321q-0.179-0.179-0.179-0.411t0.179-0.411l0.893-0.893q0.179-0.179 0.411-0.179t0.411 0.179l7.018 7.018 7.018-7.018q0.179-0.179 0.411-0.179t0.411 0.179l0.893 0.893q0.179 0.179 0.179 0.411z"></path>
    </symbol>
    <symbol id="icon-reply" viewBox="0 0 32 32">
      <title>reply</title>
      <path class="path1" d="M32 20q0 2.964-2.268 8.054-0.054 0.125-0.188 0.429t-0.241 0.536-0.232 0.393q-0.214 0.304-0.5 0.304-0.268 0-0.42-0.179t-0.152-0.446q0-0.161 0.045-0.473t0.045-0.42q0.089-1.214 0.089-2.196 0-1.804-0.313-3.232t-0.866-2.473-1.429-1.804-1.884-1.241-2.375-0.759-2.75-0.384-3.134-0.107h-4v4.571q0 0.464-0.339 0.804t-0.804 0.339-0.804-0.339l-9.143-9.143q-0.339-0.339-0.339-0.804t0.339-0.804l9.143-9.143q0.339-0.339 0.804-0.339t0.804 0.339 0.339 0.804v4.571h4q12.732 0 15.625 7.196 0.946 2.393 0.946 5.946z"></path>
    </symbol>
    <symbol id="icon-instagram" viewBox="0 0 27 32">
      <title>instagram</title>
      <path class="path1" d="M18.286 16q0-1.893-1.339-3.232t-3.232-1.339-3.232 1.339-1.339 3.232 1.339 3.232 3.232 1.339 3.232-1.339 1.339-3.232zM20.75 16q0 2.929-2.054 4.982t-4.982 2.054-4.982-2.054-2.054-4.982 2.054-4.982 4.982-2.054 4.982 2.054 2.054 4.982zM22.679 8.679q0 0.679-0.482 1.161t-1.161 0.482-1.161-0.482-0.482-1.161 0.482-1.161 1.161-0.482 1.161 0.482 0.482 1.161zM13.714 4.75q-0.125 0-1.366-0.009t-1.884 0-1.723 0.054-1.839 0.179-1.277 0.33q-0.893 0.357-1.571 1.036t-1.036 1.571q-0.196 0.518-0.33 1.277t-0.179 1.839-0.054 1.723 0 1.884 0.009 1.366-0.009 1.366 0 1.884 0.054 1.723 0.179 1.839 0.33 1.277q0.357 0.893 1.036 1.571t1.571 1.036q0.518 0.196 1.277 0.33t1.839 0.179 1.723 0.054 1.884 0 1.366-0.009 1.366 0.009 1.884 0 1.723-0.054 1.839-0.179 1.277-0.33q0.893-0.357 1.571-1.036t1.036-1.571q0.196-0.518 0.33-1.277t0.179-1.839 0.054-1.723 0-1.884-0.009-1.366 0.009-1.366 0-1.884-0.054-1.723-0.179-1.839-0.33-1.277q-0.357-0.893-1.036-1.571t-1.571-1.036q-0.518-0.196-1.277-0.33t-1.839-0.179-1.723-0.054-1.884 0-1.366 0.009zM27.429 16q0 4.089-0.089 5.661-0.179 3.714-2.214 5.75t-5.75 2.214q-1.571 0.089-5.661 0.089t-5.661-0.089q-3.714-0.179-5.75-2.214t-2.214-5.75q-0.089-1.571-0.089-5.661t0.089-5.661q0.179-3.714 2.214-5.75t5.75-2.214q1.571-0.089 5.661-0.089t5.661 0.089q3.714 0.179 5.75 2.214t2.214 5.75q0.089 1.571 0.089 5.661z"></path>
    </symbol>
    <symbol id="icon-whatsapp" viewBox="0 0 27 32">
      <title>whatsapp</title>
      <path class="path1" d="M17.589 17.393q0.232 0 1.741 0.786t1.598 0.946q0.036 0.089 0.036 0.268 0 0.589-0.304 1.357-0.286 0.696-1.268 1.17t-1.821 0.473q-1.018 0-3.393-1.107-1.75-0.804-3.036-2.107t-2.643-3.304q-1.286-1.911-1.268-3.464v-0.143q0.054-1.625 1.321-2.821 0.429-0.393 0.929-0.393 0.107 0 0.321 0.027t0.339 0.027q0.339 0 0.473 0.116t0.277 0.491q0.143 0.357 0.589 1.571t0.446 1.339q0 0.375-0.616 1.027t-0.616 0.83q0 0.125 0.089 0.268 0.607 1.304 1.821 2.446 1 0.946 2.696 1.804 0.214 0.125 0.393 0.125 0.268 0 0.964-0.866t0.929-0.866zM13.964 26.857q2.268 0 4.348-0.893t3.58-2.393 2.393-3.58 0.893-4.348-0.893-4.348-2.393-3.58-3.58-2.393-4.348-0.893-4.348 0.893-3.58 2.393-2.393 3.58-0.893 4.348q0 3.625 2.143 6.571l-1.411 4.161 4.321-1.375q2.821 1.857 6.161 1.857zM13.964 2.179q2.732 0 5.223 1.071t4.295 2.875 2.875 4.295 1.071 5.223-1.071 5.223-2.875 4.295-4.295 2.875-5.223 1.071q-3.482 0-6.518-1.679l-7.446 2.393 2.429-7.232q-1.929-3.179-1.929-6.946 0-2.732 1.071-5.223t2.875-4.295 4.295-2.875 5.223-1.071z"></path>
    </symbol>
    <symbol id="icon-vimeo" viewBox="0 0 32 32">
      <title>vimeo</title>
      <path class="path1" d="M30.518 9.25q-0.179 4.214-5.929 11.625-5.946 7.696-10.036 7.696-2.536 0-4.286-4.696-0.786-2.857-2.357-8.607-1.286-4.679-2.804-4.679-0.321 0-2.268 1.357l-1.375-1.75q0.429-0.375 1.929-1.723t2.321-2.063q2.786-2.464 4.304-2.607 1.696-0.161 2.732 0.991t1.446 3.634q0.786 5.125 1.179 6.661 0.982 4.446 2.143 4.446 0.911 0 2.75-2.875 1.804-2.875 1.946-4.393 0.232-2.482-1.946-2.482-1.018 0-2.161 0.464 2.143-7.018 8.196-6.821 4.482 0.143 4.214 5.821z"></path>
    </symbol>
    <symbol id="icon-banner-right" viewBox="0 0 32 32">
      <title>banner-right</title>
      <path class="path1" d="M8.28 32l16-16-16-16-0.56 0.52 15.48 15.48-15.48 15.48z"></path>
    </symbol>
    <symbol id="icon-banner-left" viewBox="0 0 32 32">
      <title>banner-left</title>
      <path class="path1" d="M23.72 32l-16-16 16-16 0.56 0.52-15.48 15.48 15.48 15.48z"></path>
    </symbol>
    <symbol id="icon-clip" viewBox="0 0 25 32">
      <title>clip</title>
      <path class="path1" d="M25.071 24.732q0 2.089-1.411 3.5t-3.5 1.411q-2.411 0-4.196-1.786l-13.875-13.857q-2.018-2.054-2.018-4.839 0-2.839 1.964-4.821t4.804-1.982q2.821 0 4.875 2.018l10.804 10.821q0.179 0.179 0.179 0.393 0 0.286-0.545 0.83t-0.83 0.545q-0.232 0-0.411-0.179l-10.821-10.839q-1.411-1.375-3.232-1.375-1.893 0-3.196 1.339t-1.304 3.232q0 1.875 1.357 3.232l13.857 13.875q1.125 1.125 2.589 1.125 1.143 0 1.893-0.75t0.75-1.893q0-1.464-1.125-2.589l-10.375-10.375q-0.464-0.429-1.071-0.429-0.518 0-0.857 0.339t-0.339 0.857q0 0.571 0.446 1.054l7.321 7.321q0.179 0.179 0.179 0.393 0 0.286-0.554 0.839t-0.839 0.554q-0.214 0-0.393-0.179l-7.321-7.321q-1.125-1.089-1.125-2.661 0-1.464 1.018-2.482t2.482-1.018q1.571 0 2.661 1.125l10.375 10.375q1.786 1.75 1.786 4.196z"></path>
    </symbol>
  </defs>
</svg>
