<?xml version="1.0" encoding="utf-8"?>
<!-- Generator: Adobe Illustrator 16.0.0, SVG Export Plug-In . SVG Version: 6.00 Build 0)  -->
<!DOCTYPE svg PUBLIC "-//W3C//DTD SVG 1.1//EN" "http://www.w3.org/Graphics/SVG/1.1/DTD/svg11.dtd">
<svg version="1.1" id="Layer_1" xmlns="http://www.w3.org/2000/svg" xmlns:xlink="http://www.w3.org/1999/xlink" x="0px" y="0px"
	 width="80px" height="80px" viewBox="0 0 80 80" enable-background="new 0 0 80 80" xml:space="preserve">
<g>
	<polygon points="60,15 20,15 20,60 33.965,60 40.381,66.415 46.797,60 60,60 	"/>
	<path fill-rule="evenodd" clip-rule="evenodd" fill="#FFFFFF" d="M27.566,22.209v12.827h3.399v-9.62h3.383v9.62h3.399V22.209
		H27.566L27.566,22.209z M42.496,39.756v12.827h3.399v-3.207h6.782v-9.62H42.496L42.496,39.756z M49.278,46.169h-3.383v-3.206h3.383
		V46.169L49.278,46.169z M42.496,22.21v12.826h3.399V31.83h3.383v3.207h3.399V22.21H42.496L42.496,22.21z M49.278,28.623h-3.383
		v-3.207h3.383V28.623L49.278,28.623z M37.747,49.344V49.33v-9.633h-3.399v6.441h-3.383v-6.441h-3.399v9.633v0.014h3.399v3.238
		h3.383v-3.238H37.747z"/>
</g>
</svg>
